<?xml version="1.0" standalone="no"?>
<!DOCTYPE svg PUBLIC "-//W3C//DTD SVG 20010904//EN"
 "http://www.w3.org/TR/2001/REC-SVG-20010904/DTD/svg10.dtd">
<svg version="1.0" xmlns="http://www.w3.org/2000/svg"
 width="149.000000pt" height="79.000000pt" viewBox="0 0 149.000000 79.000000"
 preserveAspectRatio="xMidYMid meet">
<metadata>
Created by potrace 1.10, written by Peter Selinger 2001-2011
</metadata>
<g transform="translate(0.000000,79.000000) scale(0.100000,-0.100000)"
fill="#009fff" stroke="none">
<path d="M130 690 c0 -5 9 -10 21 -10 11 0 29 -5 40 -10 18 -10 19 -24 19
-276 0 -164 -4 -273 -10 -285 -7 -12 -21 -19 -40 -19 -17 0 -30 -5 -30 -12 0
-10 25 -13 90 -13 65 0 90 3 90 13 0 7 -13 12 -30 12 -18 0 -33 7 -39 18 -10
19 -20 542 -10 542 3 0 13 -24 22 -52 26 -83 201 -538 207 -538 6 0 34 72 139
355 43 116 81 217 84 225 3 8 5 -108 4 -258 -2 -293 -2 -291 -54 -292 -13 0
-23 -6 -23 -12 0 -10 28 -13 112 -11 62 1 115 5 118 10 3 4 -7 9 -22 11 -50 6
-51 14 -52 296 -1 287 1 296 55 296 16 0 29 5 29 10 0 6 -34 10 -82 10 l-83 0
-79 -213 c-122 -327 -137 -367 -144 -367 -8 0 -22 35 -137 330 -48 122 -84
201 -98 212 -21 16 -20 16 18 15 38 -2 40 -4 63 -62 14 -33 37 -94 52 -135 70
-193 115 -304 117 -290 2 8 -25 92 -60 185 -35 94 -76 205 -92 248 l-28 77
-83 0 c-49 0 -84 -4 -84 -10z m623 -35 c-4 -28 -4 -515 -1 -540 2 -16 -4 -21
-31 -23 -23 -2 -31 0 -26 8 6 10 10 525 4 557 -3 20 3 24 29 21 20 -2 26 -8
25 -23z"/>
<path d="M920 690 c0 -5 10 -10 23 -10 46 0 47 -8 47 -295 0 -287 -1 -295 -47
-295 -13 0 -23 -6 -23 -12 0 -10 52 -13 228 -13 l229 0 -1 97 c-1 96 -10 126
-21 71 -27 -129 -43 -143 -169 -143 -58 0 -96 4 -104 12 -17 17 -17 549 0 566
7 7 22 12 34 12 13 0 26 5 29 10 4 6 -35 10 -109 10 -71 0 -116 -4 -116 -10z
m135 -305 l0 -295 -32 0 c-31 0 -32 1 -23 26 6 14 9 136 7 290 -1 146 -1 267
2 270 2 2 14 4 25 4 21 0 21 -3 21 -295z m305 -274 c0 -13 -6 -19 -19 -18 -15
1 -17 4 -7 19 14 24 26 23 26 -1z"/>
</g>
</svg>
